# xmcd
#
# Track frame offsets: 
#        150
#        10424
#        21027
#        32323
#        44031
#        54905
#        64294
#        87882
#        98053
#        107660
#        116575
#        127700
#        137488
#        144872
#        158821
#        170163
#        179351
#        191078
#        201442
#        215327
#        225716
#        239263
#        252495
#        264199
#
# Disc length: 3680 seconds
#
# Revision: 0
# Processed by: cddbd v1.5.2PL0 Copyright (c) Steve Scherf et al.
# Submitted via: ExactAudioCopyFreeDBPlugin 1.0
#
DISCID=480e5e18
DTITLE=Various Artist - Music to Scare Your Neighbors - Vintage 45s f
DTITLE=rom Lux and Ivy's Haunted Basement
DYEAR=2019
DGENRE=Halloween
TTITLE0=Kip Tyler - She's My Witch
TTITLE1=Archie King with the Al Lombardy Orchestra - He's a Vampire
TTITLE2=Skip Manning - Devil Blues [Satan's Not Square ...]
TTITLE3=Red Callender Sextet - Voodoo
TTITLE4=Screamin' Jay Hawkins - I Put a Spell on You
TTITLE5=Jerry and Mel - Cannibal Stew
TTITLE6=Babs Gonzales - Lulllaby of the Doomed
TTITLE7=Leroy Bowman and the Arrows - Graveyard
TTITLE8=Scottie Stuart - Nightmare
TTITLE9=Bob McFadden and Dor - The Mummy
TTITLE10=Rene Hall Orchestra - Night Fright
TTITLE11=The Coasters - The Shadow Knows
TTITLE12=Bob Luman - The Creep
TTITLE13=Big Daddy - Daniel Webster and The Devil
TTITLE14=The Castle Kings - You Can Get Him Frankenstein
TTITLE15=The Deep River Boys - Swingin' at the Seance
TTITLE16=The Interiors - Voodoo Doll
TTITLE17=The Electro-Tones - Ghost Train
TTITLE18=Bo Diddley - Bo Meets the Monster
TTITLE19=The Duponts - Screamin' Ball (At Dracula Hall)
TTITLE20=The Tomko's - The Spook
TTITLE21=The Five Jones Boys - Mr Ghost Goes to Town
TTITLE22=Three Suns - The Creep
TTITLE23=The Five Blobs - The Blobs
EXTD=
EXTT0=
EXTT1=
EXTT2=
EXTT3=
EXTT4=
EXTT5=
EXTT6=
EXTT7=
EXTT8=
EXTT9=
EXTT10=
EXTT11=
EXTT12=
EXTT13=
EXTT14=
EXTT15=
EXTT16=
EXTT17=
EXTT18=
EXTT19=
EXTT20=
EXTT21=
EXTT22=
EXTT23=
PLAYORDER=
